# xmcd
# 
# Track frame offsets:
#     182
#     12512
#     26167
#     38457
#     56047
#     70390
#     80342
#     95550
#     116777
#     127597
#     144380
#     158910
#     172790
#     191172
#     206222
#     220062
# 
# Disc length: 3101
# 
# Revision: 1
# Processed by: cddbd v1.5.1PL2 Copyright (c) Steve Scherf et al.
# Submitted via: BonkEnc v1.0beta3
# 
DISCID=de0c1b10
DTITLE=Misc - Trucker Hit Convoy - Disc 1
DYEAR=1900
DGENRE=Country
TTITLE0=TOM ATOR - Lass dich nie ganz unterkriegen
TTITLE1=LINDA FELLER - Minuten im Fieber
TTITLE2=JONNY HILL - Wenn ich nur fliegen könnte
TTITLE3=TOM ASTOR - Sie reden schneller - als sie denken
TTITLE4=ROSE and VORBERG - Manchmal
TTITLE5=TOM ASTOR - Goodbye mein Freund
TTITLE6=NASHVILLE MUSIC COMPANY - Nur mit dir
TTITLE7=GUNTER GABRIEL - Ich bin ein Straßenhund
TTITLE8=TOM ASTOR - Fahr weiter
TTITLE9=RALF PAUSEN - Mein guter alter Freund
TTITLE10=RUGY and HOWARD - Express Cowboy
TTITLE11=TOM ASTOR - Morgensonne
TTITLE12=DIRK MAVERICK- Highway deiner Träume
TTITLE13=TOM ASTOR - Lang ist es her
TTITLE14=DE DRÖPPCHER - Mi Mädchen us Kölle
TTITLE15=TOM ASTOR - Heisses Eis
EXTD=
EXTT0=
EXTT1=
EXTT2=
EXTT3=
EXTT4=
EXTT5=
EXTT6=
EXTT7=
EXTT8=
EXTT9=
EXTT10=
EXTT11=
EXTT12=
EXTT13=
EXTT14=
EXTT15=
PLAYORDER=
